:SAMPLES-PER-SECOND 30
:FULLY-SPECIFIED
:DEGREES
395
root  69.5608 39.8841 -4.97325 -15.3409 -77.9538 12.145
RightUpLeg  -2.32566 -19.5694 -15.1014
RightLeg  12.9968 -9.52336 1.40151
RightFoot  -1.16046 -0.560121 6.19404
RightToes  -1.16417e-010 0 -3.6325e-017
Spine  16.1633 -0.100371 3.75372
Spine1  5.06752 1.92625 -6.30915
HEad  -15.5576 4.48238 2.36701
LeftShoulder1  10.3797 -18.2024 -41.4536
LeftArm  -28.0003 -43.8998 -26.5079
LeftForeArm  16.1758 -46.9996 -10.8619
LeftHand  -0.244104 0.0205437 5.32207
RightShoulder  5.36129 12.3349 27.8268
RightArm  5.12984 52.2968 58.2843
RightForeArm  -32.2171 39.6292 10.9418
RightHand  -0.605514 -0.592326 -14.6255
LeftUpLeg  -6.80021 8.84667 2.5584
LeftLeg  10.3177 4.90723 -1.29844
LeftFoot  1.32107 0.182843 -1.69661
LeftToes  -2.09216e-011 1.96776e-011 -5.83545e-012
396
root  69.4927 39.8371 -4.97795 -13.6764 -75.8509 10.1837
RightUpLeg  -1.47138 -20.7696 -15.6
RightLeg  13.7106 -10.1178 1.04766
RightFoot  -1.9956 -0.567613 6.77143
RightToes  -1.16417e-010 0 -3.6325e-017
Spine  16.0939 0.0752782 4.50986
Spine1  5.47651 2.55535 -7.60131
HEad  -14.6437 2.21392 3.00497
LeftShoulder1  10.5226 -17.9774 -42.5436
LeftArm  -26.4255 -39.2097 -27.4785
LeftForeArm  15.3047 -50.5828 -12.5092
LeftHand  -0.244104 0.0205437 5.32207
RightShoulder  5.48803 12.6924 27.856
RightArm  11.2174 50.0104 61.6479
RightForeArm  -39.7151 38.2086 10.7325
RightHand  -0.903652 1.20344 -15.93
LeftUpLeg  -7.12745 8.50081 2.12575
LeftLeg  11.1272 3.12809 -1.01711
LeftFoot  0.879062 0.193822 -1.84287
LeftToes  -2.09216e-011 1.96776e-011 -5.83545e-012
397
root  69.3801 39.7821 -4.97282 -11.8783 -72.9788 8.06798
RightUpLeg  -0.218621 -21.9402 -16.259
RightLeg  14.4168 -11.3796 0.698816
RightFoot  -2.92831 -0.559749 7.32671
RightToes  -1.16417e-010 0 -3.6325e-017
Spine  16.0764 0.230493 5.13078
Spine1  5.98484 3.08669 -8.52485
HEad  -13.806 -0.332915 4.36769
LeftShoulder1  10.6888 -17.6918 -43.8797
LeftArm  -24.621 -32.5854 -28.1003
LeftForeArm  14.505 -54.9423 -14.9311
LeftHand  -0.244104 0.0205437 5.32207
RightShoulder  5.85895 13.301 28.8592
RightArm  14.1835 44.6471 62.2397
RightForeArm  -43.0691 40.1459 11.523
RightHand  -1.21492 2.71641 -17.5423
LeftUpLeg  -7.55389 7.61257 1.62695
LeftLeg  12.0843 1.1314 -0.716399
LeftFoot  0.347783 0.210996 -2.0887
LeftToes  -2.09216e-011 1.96776e-011 -5.83545e-012
398
root  69.2748 39.7135 -4.96512 -10.2127 -69.8598 6.32097
RightUpLeg  0.72169 -23.3563 -16.7629
RightLeg  15.3272 -12.6469 0.19929
RightFoot  -3.7849 -0.529808 7.61778
RightToes  -1.16417e-010 0 -3.6325e-017
Spine  16.1749 0.622038 5.64689
Spine1  6.80023 3.81537 -9.10688
HEad  -14.1485 -3.43679 6.1045
LeftShoulder1  10.8994 -17.3711 -45.5096
LeftArm  -24.2037 -24.7225 -27.62
LeftForeArm  14.9283 -59.8822 -18.4052
LeftHand  -0.244104 0.0205437 5.32207
RightShoulder  6.20942 13.4905 30.5689
RightArm  15.111 37.7577 61.5942
RightForeArm  -41.0252 43.8604 12.88
RightHand  -1.12708 2.1896 -17.3255
LeftUpLeg  -8.33356 6.23053 1.15375
LeftLeg  13.1504 -0.586228 -0.505478
LeftFoot  -0.173512 0.232071 -2.37315
LeftToes  -2.09216e-011 1.96776e-011 -5.83545e-012
399
root  69.1806 39.636 -4.95533 -8.494 -67.0831 4.91753
RightUpLeg  0.974464 -25.1328 -16.8742
RightLeg  16.3602 -13.363 -0.431385
RightFoot  -4.50494 -0.496983 7.79417
RightToes  -1.16417e-010 0 -3.6325e-017
Spine  16.2328 1.32309 6.30726
Spine1  7.9249 4.92698 -9.7083
HEad  -15.8953 -7.1342 7.74297
LeftShoulder1  10.9762 -16.9526 -46.8115
LeftArm  -24.6809 -16.9296 -25.9508
LeftForeArm  17.6518 -64.5661 -22.7152
LeftHand  -0.244104 0.0205437 5.32207
RightShoulder  6.44063 13.3487 32.259
RightArm  16.6013 31.2946 61.3473
RightForeArm  -38.2088 46.9065 14.1021
RightHand  -0.906226 1.0922 -16.3362
LeftUpLeg  -9.56221 4.86548 0.878983
LeftLeg  14.3175 -1.93782 -0.50525
LeftFoot  -0.706003 0.246912 -2.60599
LeftToes  -2.09216e-011 1.96776e-011 -5.83545e-012
400
root  69.073 39.5571 -4.94013 -6.64742 -64.7388 3.6396
RightUpLeg  0.813199 -27.2171 -16.6454
RightLeg  17.3201 -13.4614 -1.07554
RightFoot  -5.16087 -0.473707 8.11087
RightToes  -1.16417e-010 0 -3.6325e-017
Spine  16.3435 2.27937 7.24448
Spine1  9.0242 6.42403 -10.5674
HEad  -18.1831 -11.3799 9.66061
LeftShoulder1  10.7635 -16.4735 -47.0102
LeftArm  -24.9677 -10.3817 -24.5505
LeftForeArm  21.3276 -67.5119 -26.2316
LeftHand  -0.244104 0.0205437 5.32207
RightShoulder  6.68456 13.4151 33.5469
RightArm  19.2163 26.1497 61.5969
RightForeArm  -38.5645 48.0408 14.6578
RightHand  -1.08479 1.99473 -17.1012
LeftUpLeg  -11.0438 3.80189 0.885657
LeftLeg  15.5801 -3.1232 -0.730827
LeftFoot  -1.31479 0.253479 -2.8001
LeftToes  -2.09216e-011 1.96776e-011 -5.83545e-012
